# xmcd
#
# Track frame offsets:
#	150
#	8302
#	20174
#	28910
#	40915
#	50883
#	58373
#	70448
#	77623
#	87283
#	96264
#	105021
#	115031
#	126623
#	136094
#	145740
#	153818
#	166530
#	178787
#	188699
#	198604
#	209447
#	218659
#	230370
#	241598
#	252455
#	265447
#	277144
#	286139
#	297080
#	308049
#
# Disc length: 4269 seconds
#
# Revision: 0
# Processed by: cddbd v1.5.2PL0 Copyright (c) Steve Scherf et al.
# Submitted via: EasyCDDAExtractor 15.2.5.1
#
DISCID=be10ab1f
DTITLE=marlin wallace - double album
DYEAR=1900
DGENRE=
TTITLE0=sweet love of mine
TTITLE1=mekong
TTITLE2=i'll try
TTITLE3=la-lo-ram-ya
TTITLE4=the planet mars
TTITLE5=georgia corn liquor man
TTITLE6=the jungle in flight
TTITLE7=love me tonight
TTITLE8=whistlin' bill
TTITLE9=how it feels to be alone
TTITLE10=wildcat mabellene
TTITLE11=ghost train
TTITLE12=little orphan girl
TTITLE13=this is war
TTITLE14=heart full of pain
TTITLE15=gray wolf
TTITLE16=abominable snow creature
TTITLE17=colorado river
TTITLE18=midnight train
TTITLE19=golden dreams
TTITLE20=millions of years ago
TTITLE21=head-hunters
TTITLE22=the song of the wind
TTITLE23=the flower of love
TTITLE24=colombus
TTITLE25=only you
TTITLE26=before the white man came
TTITLE27=the russian bear
TTITLE28=a stranger in the land
TTITLE29=big eight wheels
TTITLE30=mark of the beast
EXTD=
EXTT0=
EXTT1=
EXTT2=
EXTT3=
EXTT4=
EXTT5=
EXTT6=
EXTT7=
EXTT8=
EXTT9=
EXTT10=
EXTT11=
EXTT12=
EXTT13=
EXTT14=
EXTT15=
EXTT16=
EXTT17=
EXTT18=
EXTT19=
EXTT20=
EXTT21=
EXTT22=
EXTT23=
EXTT24=
EXTT25=
EXTT26=
EXTT27=
EXTT28=
EXTT29=
EXTT30=
PLAYORDER=
